<?xml version="1.0" encoding="UTF-8"?>
<svg id="Layer_1" xmlns="http://www.w3.org/2000/svg" version="1.1" viewBox="0 0 100 100">
  <!-- Generator: Adobe Illustrator 29.7.1, SVG Export Plug-In . SVG Version: 2.1.1 Build 8)  -->
  <defs>
    <style>
      .st0 {
        fill: #fff;
      }
    </style>
  </defs>
  <g>
    <rect x="-369" y="-170.8" width="64" height="64"/>
    <g>
      <polygon class="st0" points="-349 -138.8 -361 -138.8 -349 -126.8 -361 -114.8 -349 -114.8 -331 -132.8 -313 -114.8 -313 -126.8 -325 -138.8 -337 -138.8 -343 -132.8 -349 -138.8"/>
      <polygon class="st0" points="-325 -138.8 -313 -138.8 -325 -150.8 -313 -162.8 -325 -162.8 -343 -144.8 -361 -162.8 -361 -150.8 -349 -138.8 -337 -138.8 -331 -144.8 -325 -138.8"/>
    </g>
  </g>
  <g>
    <rect x="-369" y="-86.8" width="32" height="32"/>
    <g>
      <polygon class="st0" points="-359 -70.8 -365 -70.8 -359 -64.8 -365 -58.8 -359 -58.8 -350 -67.8 -341 -58.8 -341 -64.8 -347 -70.8 -353 -70.8 -356 -67.8 -359 -70.8"/>
      <polygon class="st0" points="-347 -70.8 -341 -70.8 -347 -76.8 -341 -82.8 -347 -82.8 -356 -73.8 -365 -82.8 -365 -76.8 -359 -70.8 -353 -70.8 -350 -73.8 -347 -70.8"/>
    </g>
  </g>
  <g>
    <rect x="-323" y="47.2" width="16" height="16"/>
    <g>
      <polygon class="st0" points="-318 55.2 -321 55.2 -318 58.2 -321 61.2 -318 61.2 -313.5 56.7 -309 61.2 -309 58.2 -312 55.2 -315 55.2 -316.5 56.7 -318 55.2"/>
      <polygon class="st0" points="-312 55.2 -309 55.2 -312 52.2 -309 49.2 -312 49.2 -316.5 53.7 -321 49.2 -321 52.2 -318 55.2 -315 55.2 -313.5 53.7 -312 55.2"/>
    </g>
  </g>
  <g>
    <rect x="-240" y="-40" width="180" height="180"/>
    <g>
      <polygon class="st0" points="-183.9 50 -217.5 50 -183.7 83.7 -217.5 117.5 -183.8 117.5 -133.1 66.9 -82.5 117.5 -82.5 83.7 -116.2 50 -150 50 -166.8 66.9 -183.9 50"/>
      <polygon class="st0" points="-116.1 50 -82.5 50 -116.3 16.2 -82.5 -17.5 -116.2 -17.5 -166.9 33.1 -217.5 -17.5 -217.5 16.2 -183.8 50 -150 50 -133.2 33.1 -116.1 50"/>
    </g>
  </g>
  <g>
    <polygon class="st0" points="24.9 50 0 50 25 75 0 100 25 100 62.5 62.5 100 100 100 75 75 50 50 50 37.5 62.5 24.9 50"/>
    <polygon class="st0" points="75.1 50 100 50 75 25 100 0 75 0 37.5 37.5 0 0 0 25 25 50 50 50 62.5 37.5 75.1 50"/>
  </g>
</svg>